<svg width="392" height="390" viewBox="0 0 392 390" fill="none" xmlns="http://www.w3.org/2000/svg">
<g clip-path="url(#clip0_8_3)">
<rect width="392" height="390" rx="195" fill="black"/>
<path d="M149.858 91.465C159.622 89.1031 168.417 89.3991 175.214 93.8142C182.062 98.2625 186.44 106.598 187.971 119.247C190.858 143.103 206.559 161.186 228.985 174.915C251.409 188.642 280.293 197.841 308.941 203.991C337.565 210.135 365.836 213.211 386.961 214.749C397.52 215.518 406.287 215.901 412.411 216.093C415.473 216.189 417.874 216.238 419.508 216.262C420.325 216.273 420.95 216.28 421.37 216.283C421.58 216.285 421.738 216.285 421.844 216.286H421.998C421.999 216.286 422 216.286 422 218.143C422 220 421.999 220 421.997 220H421.832C421.723 220 421.56 219.998 421.346 219.996C420.918 219.993 420.284 219.988 419.459 219.976C417.807 219.952 415.388 219.903 412.306 219.807C406.142 219.613 397.329 219.226 386.717 218.454C365.499 216.909 337.063 213.818 308.236 207.63C279.431 201.447 250.117 192.147 227.213 178.126C204.311 164.106 187.556 145.191 184.473 119.716C183.019 107.701 178.974 100.62 173.362 96.9748C167.7 93.2968 160.002 92.8222 150.647 95.085C131.912 99.6169 107.792 114.821 83.8001 133.314C59.8724 151.757 36.2978 173.288 18.6931 190.224C9.89376 198.689 2.59134 205.999 -2.5091 211.192C-5.05915 213.788 -7.05855 215.856 -8.41977 217.272C-9.10025 217.981 -9.62142 218.527 -9.97177 218.895L-10.4987 219.45C-10.5032 219.447 -10.5669 219.381 -11.7511 218.143C-12.9343 216.905 -12.9979 216.837 -13 216.832L-12.9667 216.797C-12.9437 216.773 -12.9098 216.736 -12.8645 216.688C-12.7742 216.593 -12.6398 216.451 -12.4628 216.265C-12.1085 215.893 -11.5829 215.343 -10.8981 214.63C-9.52843 213.205 -7.52003 211.127 -4.95992 208.521C0.160084 203.308 7.48663 195.974 16.3146 187.482C33.9646 170.503 57.6446 148.87 81.7177 130.315C105.727 111.81 130.354 96.1827 149.858 91.465Z" fill="url(#paint0_linear_8_3)"/>
<path d="M149.858 101.465C159.622 99.1031 168.417 99.3991 175.214 103.814C182.062 108.262 186.44 116.598 187.971 129.247C190.858 153.103 206.559 171.186 228.985 184.915C251.409 198.642 280.293 207.841 308.941 213.991C337.565 220.135 365.836 223.211 386.961 224.749C397.52 225.518 406.287 225.901 412.411 226.093C415.473 226.189 417.874 226.238 419.508 226.262C420.325 226.273 420.95 226.28 421.37 226.283C421.58 226.285 421.738 226.285 421.844 226.286H421.998C421.999 226.286 422 226.286 422 228.143C422 230 421.999 230 421.997 230H421.832C421.723 230 421.56 229.998 421.346 229.996C420.918 229.993 420.284 229.988 419.459 229.976C417.807 229.952 415.388 229.903 412.306 229.807C406.142 229.613 397.329 229.226 386.717 228.454C365.499 226.909 337.063 223.818 308.236 217.63C279.431 211.447 250.117 202.147 227.213 188.126C204.311 174.106 187.556 155.191 184.473 129.716C183.019 117.701 178.974 110.62 173.362 106.975C167.7 103.297 160.002 102.822 150.647 105.085C131.912 109.617 107.792 124.821 83.8001 143.314C59.8724 161.757 36.2978 183.288 18.6931 200.224C9.89376 208.689 2.59134 215.999 -2.5091 221.192C-5.05915 223.788 -7.05855 225.856 -8.41977 227.272C-9.10025 227.981 -9.62142 228.527 -9.97177 228.895L-10.4987 229.45C-10.5032 229.447 -10.5669 229.381 -11.7511 228.143C-12.9343 226.905 -12.9979 226.837 -13 226.832L-12.9667 226.797C-12.9437 226.773 -12.9098 226.736 -12.8645 226.688C-12.7742 226.593 -12.6398 226.451 -12.4628 226.265C-12.1085 225.893 -11.5829 225.343 -10.8981 224.63C-9.52843 223.205 -7.52003 221.127 -4.95992 218.521C0.160084 213.308 7.48663 205.974 16.3146 197.482C33.9646 180.503 57.6446 158.87 81.7177 140.315C105.727 121.81 130.354 106.183 149.858 101.465Z" fill="url(#paint1_linear_8_3)"/>
<path d="M149.858 111.465C159.622 109.103 168.417 109.399 175.214 113.814C182.062 118.262 186.44 126.598 187.971 139.247C190.858 163.103 206.559 181.186 228.985 194.915C251.409 208.642 280.293 217.841 308.941 223.991C337.565 230.135 365.836 233.211 386.961 234.749C397.52 235.518 406.287 235.901 412.411 236.093C415.473 236.189 417.874 236.238 419.508 236.262C420.325 236.273 420.95 236.28 421.37 236.283C421.58 236.285 421.738 236.285 421.844 236.286H421.998C421.999 236.286 422 236.286 422 238.143C422 240 421.999 240 421.997 240H421.832C421.723 240 421.56 239.998 421.346 239.996C420.918 239.993 420.284 239.988 419.459 239.976C417.807 239.952 415.388 239.903 412.306 239.807C406.142 239.613 397.329 239.226 386.717 238.454C365.499 236.909 337.063 233.818 308.236 227.63C279.431 221.447 250.117 212.147 227.213 198.126C204.311 184.106 187.556 165.191 184.473 139.716C183.019 127.701 178.974 120.62 173.362 116.975C167.7 113.297 160.002 112.822 150.647 115.085C131.912 119.617 107.792 134.821 83.8001 153.314C59.8724 171.757 36.2978 193.288 18.6931 210.224C9.89376 218.689 2.59134 225.999 -2.5091 231.192C-5.05915 233.788 -7.05855 235.856 -8.41977 237.272C-9.10025 237.981 -9.62142 238.527 -9.97177 238.895L-10.4987 239.45C-10.5032 239.447 -10.5669 239.381 -11.7511 238.143C-12.9343 236.905 -12.9979 236.837 -13 236.832L-12.9667 236.797C-12.9437 236.773 -12.9098 236.736 -12.8645 236.688C-12.7742 236.593 -12.6398 236.451 -12.4628 236.265C-12.1085 235.893 -11.5829 235.343 -10.8981 234.63C-9.52843 233.205 -7.52003 231.127 -4.95992 228.521C0.160084 223.308 7.48663 215.974 16.3146 207.482C33.9646 190.503 57.6446 168.87 81.7177 150.315C105.727 131.81 130.354 116.183 149.858 111.465Z" fill="url(#paint2_linear_8_3)"/>
<path d="M149.858 121.465C159.622 119.103 168.417 119.399 175.214 123.814C182.062 128.262 186.44 136.598 187.971 149.247C190.858 173.103 206.559 191.186 228.985 204.915C251.409 218.642 280.293 227.841 308.941 233.991C337.565 240.135 365.836 243.211 386.961 244.749C397.52 245.518 406.287 245.901 412.411 246.093C415.473 246.189 417.874 246.238 419.508 246.262C420.325 246.273 420.95 246.28 421.37 246.283C421.58 246.285 421.738 246.285 421.844 246.286H421.998C421.999 246.286 422 246.286 422 248.143C422 250 421.999 250 421.997 250H421.832C421.723 250 421.56 249.998 421.346 249.996C420.918 249.993 420.284 249.988 419.459 249.976C417.807 249.952 415.388 249.903 412.306 249.807C406.142 249.613 397.329 249.226 386.717 248.454C365.499 246.909 337.063 243.818 308.236 237.63C279.431 231.447 250.117 222.147 227.213 208.126C204.311 194.106 187.556 175.191 184.473 149.716C183.019 137.701 178.974 130.62 173.362 126.975C167.7 123.297 160.002 122.822 150.647 125.085C131.912 129.617 107.792 144.821 83.8001 163.314C59.8724 181.757 36.2978 203.288 18.6931 220.224C9.89376 228.689 2.59134 235.999 -2.5091 241.192C-5.05915 243.788 -7.05855 245.856 -8.41977 247.272C-9.10025 247.981 -9.62142 248.527 -9.97177 248.895L-10.4987 249.45C-10.5032 249.447 -10.5669 249.381 -11.7511 248.143C-12.9343 246.905 -12.9979 246.837 -13 246.832L-12.9667 246.797C-12.9437 246.773 -12.9098 246.736 -12.8645 246.688C-12.7742 246.593 -12.6398 246.451 -12.4628 246.265C-12.1085 245.893 -11.5829 245.343 -10.8981 244.63C-9.52843 243.205 -7.52003 241.127 -4.95992 238.521C0.160084 233.308 7.48663 225.974 16.3146 217.482C33.9646 200.503 57.6446 178.87 81.7177 160.315C105.727 141.81 130.354 126.183 149.858 121.465Z" fill="url(#paint3_linear_8_3)"/>
<path d="M149.858 131.465C159.622 129.103 168.417 129.399 175.214 133.814C182.062 138.262 186.44 146.598 187.971 159.247C190.858 183.103 206.559 201.186 228.985 214.915C251.409 228.642 280.293 237.841 308.941 243.991C337.565 250.135 365.836 253.211 386.961 254.749C397.52 255.518 406.287 255.901 412.411 256.093C415.473 256.189 417.874 256.238 419.508 256.262C420.325 256.273 420.95 256.28 421.37 256.283C421.58 256.285 421.738 256.285 421.844 256.286H421.998C421.999 256.286 422 256.286 422 258.143C422 260 421.999 260 421.997 260H421.832C421.723 260 421.56 259.998 421.346 259.996C420.918 259.993 420.284 259.988 419.459 259.976C417.807 259.952 415.388 259.903 412.306 259.807C406.142 259.613 397.329 259.226 386.717 258.454C365.499 256.909 337.063 253.818 308.236 247.63C279.431 241.447 250.117 232.147 227.213 218.126C204.311 204.106 187.556 185.191 184.473 159.716C183.019 147.701 178.974 140.62 173.362 136.975C167.7 133.297 160.002 132.822 150.647 135.085C131.912 139.617 107.792 154.821 83.8001 173.314C59.8724 191.757 36.2978 213.288 18.6931 230.224C9.89376 238.689 2.59134 245.999 -2.5091 251.192C-5.05915 253.788 -7.05855 255.856 -8.41977 257.272C-9.10025 257.981 -9.62142 258.527 -9.97177 258.895L-10.4987 259.45C-10.5032 259.447 -10.5669 259.381 -11.7511 258.143C-12.9343 256.905 -12.9979 256.837 -13 256.832L-12.9667 256.797C-12.9437 256.773 -12.9098 256.736 -12.8645 256.688C-12.7742 256.593 -12.6398 256.451 -12.4628 256.265C-12.1085 255.893 -11.5829 255.343 -10.8981 254.63C-9.52843 253.205 -7.52003 251.127 -4.95992 248.521C0.160084 243.308 7.48663 235.974 16.3146 227.482C33.9646 210.503 57.6446 188.87 81.7177 170.315C105.727 151.81 130.354 136.183 149.858 131.465Z" fill="url(#paint4_linear_8_3)"/>
<path d="M149.858 81.465C159.622 79.1031 168.417 79.3991 175.214 83.8142C182.062 88.2625 186.44 96.598 187.971 109.247C190.858 133.103 206.559 151.186 228.985 164.915C251.409 178.642 280.293 187.841 308.941 193.991C337.565 200.135 365.836 203.211 386.961 204.749C397.52 205.518 406.287 205.901 412.411 206.093C415.473 206.189 417.874 206.238 419.508 206.262C420.325 206.273 420.95 206.28 421.37 206.283C421.58 206.285 421.738 206.285 421.844 206.286H421.998C421.999 206.286 422 206.286 422 208.143C422 210 421.999 210 421.997 210H421.832C421.723 210 421.56 209.998 421.346 209.996C420.918 209.993 420.284 209.988 419.459 209.976C417.807 209.952 415.388 209.903 412.306 209.807C406.142 209.613 397.329 209.226 386.717 208.454C365.499 206.909 337.063 203.818 308.236 197.63C279.431 191.447 250.117 182.147 227.213 168.126C204.311 154.106 187.556 135.191 184.473 109.716C183.019 97.7007 178.974 90.6198 173.362 86.9748C167.7 83.2968 160.002 82.8222 150.647 85.085C131.912 89.6169 107.792 104.821 83.8001 123.314C59.8724 141.757 36.2978 163.288 18.6931 180.224C9.89376 188.689 2.59134 195.999 -2.5091 201.192C-5.05915 203.788 -7.05855 205.856 -8.41977 207.272C-9.10025 207.981 -9.62142 208.527 -9.97177 208.895L-10.4987 209.45C-10.5032 209.447 -10.5669 209.381 -11.7511 208.143C-12.9343 206.905 -12.9979 206.837 -13 206.832L-12.9667 206.797C-12.9437 206.773 -12.9098 206.736 -12.8645 206.688C-12.7742 206.593 -12.6398 206.451 -12.4628 206.265C-12.1085 205.893 -11.5829 205.343 -10.8981 204.63C-9.52843 203.205 -7.52003 201.127 -4.95992 198.521C0.160084 193.308 7.48663 185.974 16.3146 177.482C33.9646 160.503 57.6446 138.87 81.7177 120.315C105.727 101.81 130.354 86.1827 149.858 81.465Z" fill="url(#paint5_linear_8_3)"/>
<path d="M149.858 141.465C159.622 139.103 168.417 139.399 175.214 143.814C182.062 148.262 186.44 156.598 187.971 169.247C190.858 193.103 206.559 211.186 228.985 224.915C251.409 238.642 280.293 247.841 308.941 253.991C337.565 260.135 365.836 263.211 386.961 264.749C397.52 265.518 406.287 265.901 412.411 266.093C415.473 266.189 417.874 266.238 419.508 266.262C420.325 266.273 420.95 266.28 421.37 266.283C421.58 266.285 421.738 266.285 421.844 266.286H421.998C421.999 266.286 422 266.286 422 268.143C422 270 421.999 270 421.997 270H421.832C421.723 270 421.56 269.998 421.346 269.996C420.918 269.993 420.284 269.988 419.459 269.976C417.807 269.952 415.388 269.903 412.306 269.807C406.142 269.613 397.329 269.226 386.717 268.454C365.499 266.909 337.063 263.818 308.236 257.63C279.431 251.447 250.117 242.147 227.213 228.126C204.311 214.106 187.556 195.191 184.473 169.716C183.019 157.701 178.974 150.62 173.362 146.975C167.7 143.297 160.002 142.822 150.647 145.085C131.912 149.617 107.792 164.821 83.8001 183.314C59.8724 201.757 36.2978 223.288 18.6931 240.224C9.89376 248.689 2.59134 255.999 -2.5091 261.192C-5.05915 263.788 -7.05855 265.856 -8.41977 267.272C-9.10025 267.981 -9.62142 268.527 -9.97177 268.895L-10.4987 269.45C-10.5032 269.447 -10.5669 269.381 -11.7511 268.143C-12.9343 266.905 -12.9979 266.837 -13 266.832L-12.9667 266.797C-12.9437 266.773 -12.9098 266.736 -12.8645 266.688C-12.7742 266.593 -12.6398 266.451 -12.4628 266.265C-12.1085 265.893 -11.5829 265.343 -10.8981 264.63C-9.52843 263.205 -7.52003 261.127 -4.95992 258.521C0.160084 253.308 7.48663 245.974 16.3146 237.482C33.9646 220.503 57.6446 198.87 81.7177 180.315C105.727 161.81 130.354 146.183 149.858 141.465Z" fill="url(#paint6_linear_8_3)"/>
<path d="M149.858 71.465C159.622 69.1031 168.417 69.3991 175.214 73.8142C182.062 78.2625 186.44 86.598 187.971 99.2472C190.858 123.103 206.559 141.186 228.985 154.915C251.409 168.642 280.293 177.841 308.941 183.991C337.565 190.135 365.836 193.211 386.961 194.749C397.52 195.518 406.287 195.901 412.411 196.093C415.473 196.189 417.874 196.238 419.508 196.262C420.325 196.273 420.95 196.28 421.37 196.283C421.58 196.285 421.738 196.285 421.844 196.286H421.998C421.999 196.286 422 196.286 422 198.143C422 200 421.999 200 421.997 200H421.832C421.723 200 421.56 199.998 421.346 199.996C420.918 199.993 420.284 199.988 419.459 199.976C417.807 199.952 415.388 199.903 412.306 199.807C406.142 199.613 397.329 199.226 386.717 198.454C365.499 196.909 337.063 193.818 308.236 187.63C279.431 181.447 250.117 172.147 227.213 158.126C204.311 144.106 187.556 125.191 184.473 99.7164C183.019 87.7007 178.974 80.6198 173.362 76.9748C167.7 73.2968 160.002 72.8222 150.647 75.085C131.912 79.6169 107.792 94.8214 83.8001 113.314C59.8724 131.757 36.2978 153.288 18.6931 170.224C9.89376 178.689 2.59134 185.999 -2.5091 191.192C-5.05915 193.788 -7.05855 195.856 -8.41977 197.272C-9.10025 197.981 -9.62142 198.527 -9.97177 198.895L-10.4987 199.45C-10.5032 199.447 -10.5669 199.381 -11.7511 198.143C-12.9343 196.905 -12.9979 196.837 -13 196.832L-12.9667 196.797C-12.9437 196.773 -12.9098 196.736 -12.8645 196.688C-12.7742 196.593 -12.6398 196.451 -12.4628 196.265C-12.1085 195.893 -11.5829 195.343 -10.8981 194.63C-9.52843 193.205 -7.52003 191.127 -4.95992 188.521C0.160084 183.308 7.48663 175.974 16.3146 167.482C33.9646 150.503 57.6446 128.87 81.7177 110.315C105.727 91.8099 130.354 76.1827 149.858 71.465Z" fill="url(#paint7_linear_8_3)"/>
<path d="M149.858 151.465C159.622 149.103 168.417 149.399 175.214 153.814C182.062 158.262 186.44 166.598 187.971 179.247C190.858 203.103 206.559 221.186 228.985 234.915C251.409 248.642 280.293 257.841 308.941 263.991C337.565 270.135 365.836 273.211 386.961 274.749C397.52 275.518 406.287 275.901 412.411 276.093C415.473 276.189 417.874 276.238 419.508 276.262C420.325 276.273 420.95 276.28 421.37 276.283C421.58 276.285 421.738 276.285 421.844 276.286H421.998C421.999 276.286 422 276.286 422 278.143C422 280 421.999 280 421.997 280H421.832C421.723 280 421.56 279.998 421.346 279.996C420.918 279.993 420.284 279.988 419.459 279.976C417.807 279.952 415.388 279.903 412.306 279.807C406.142 279.613 397.329 279.226 386.717 278.454C365.499 276.909 337.063 273.818 308.236 267.63C279.431 261.447 250.117 252.147 227.213 238.126C204.311 224.106 187.556 205.191 184.473 179.716C183.019 167.701 178.974 160.62 173.362 156.975C167.7 153.297 160.002 152.822 150.647 155.085C131.912 159.617 107.792 174.821 83.8001 193.314C59.8724 211.757 36.2978 233.288 18.6931 250.224C9.89376 258.689 2.59134 265.999 -2.5091 271.192C-5.05915 273.788 -7.05855 275.856 -8.41977 277.272C-9.10025 277.981 -9.62142 278.527 -9.97177 278.895L-10.4987 279.45C-10.5032 279.447 -10.5669 279.381 -11.7511 278.143C-12.9343 276.905 -12.9979 276.837 -13 276.832L-12.9667 276.797C-12.9437 276.773 -12.9098 276.736 -12.8645 276.688C-12.7742 276.593 -12.6398 276.451 -12.4628 276.265C-12.1085 275.893 -11.5829 275.343 -10.8981 274.63C-9.52843 273.205 -7.52003 271.127 -4.95992 268.521C0.160084 263.308 7.48663 255.974 16.3146 247.482C33.9646 230.503 57.6446 208.87 81.7177 190.315C105.727 171.81 130.354 156.183 149.858 151.465Z" fill="url(#paint8_linear_8_3)"/>
</g>
<rect x="2" y="2" width="388" height="386" rx="193" stroke="#DBBEF2" stroke-width="4"/>
<defs>
<linearGradient id="paint0_linear_8_3" x1="204.5" y1="90" x2="204.5" y2="220" gradientUnits="userSpaceOnUse">
<stop offset="0.288462" stop-color="#2C004D"/>
<stop offset="0.716346" stop-color="#C085ED"/>
</linearGradient>
<linearGradient id="paint1_linear_8_3" x1="204.5" y1="100" x2="204.5" y2="230" gradientUnits="userSpaceOnUse">
<stop offset="0.288462" stop-color="#2C004D"/>
<stop offset="0.716346" stop-color="#C085ED"/>
</linearGradient>
<linearGradient id="paint2_linear_8_3" x1="204.5" y1="110" x2="204.5" y2="240" gradientUnits="userSpaceOnUse">
<stop offset="0.288462" stop-color="#2C004D"/>
<stop offset="0.716346" stop-color="#C085ED"/>
</linearGradient>
<linearGradient id="paint3_linear_8_3" x1="204.5" y1="120" x2="204.5" y2="250" gradientUnits="userSpaceOnUse">
<stop offset="0.288462" stop-color="#2C004D"/>
<stop offset="0.716346" stop-color="#C085ED"/>
</linearGradient>
<linearGradient id="paint4_linear_8_3" x1="204.5" y1="130" x2="204.5" y2="260" gradientUnits="userSpaceOnUse">
<stop offset="0.288462" stop-color="#2C004D"/>
<stop offset="0.716346" stop-color="#C085ED"/>
</linearGradient>
<linearGradient id="paint5_linear_8_3" x1="204.5" y1="80" x2="204.5" y2="210" gradientUnits="userSpaceOnUse">
<stop offset="0.288462" stop-color="#2C004D"/>
<stop offset="0.716346" stop-color="#C085ED"/>
</linearGradient>
<linearGradient id="paint6_linear_8_3" x1="204.5" y1="140" x2="204.5" y2="270" gradientUnits="userSpaceOnUse">
<stop offset="0.288462" stop-color="#2C004D"/>
<stop offset="0.716346" stop-color="#C085ED"/>
</linearGradient>
<linearGradient id="paint7_linear_8_3" x1="204.5" y1="70" x2="204.5" y2="200" gradientUnits="userSpaceOnUse">
<stop offset="0.288462" stop-color="#2C004D"/>
<stop offset="0.716346" stop-color="#C085ED"/>
</linearGradient>
<linearGradient id="paint8_linear_8_3" x1="204.5" y1="150" x2="204.5" y2="280" gradientUnits="userSpaceOnUse">
<stop offset="0.288462" stop-color="#2C004D"/>
<stop offset="0.716346" stop-color="#C085ED"/>
</linearGradient>
<clipPath id="clip0_8_3">
<rect width="392" height="390" rx="195" fill="white"/>
</clipPath>
</defs>
</svg>
